<svg xmlns="http://www.w3.org/2000/svg" width="80" height="80"><path d="M57.922 0H22.077A22.1 22.1 0 000 22.077v35.846A22.1 22.1 0 0022.077 80h35.845A22.1 22.1 0 0080 57.923V22.077A22.1 22.1 0 0057.922 0zM72.9 57.923A15 15 0 0157.923 72.9H22.077A15 15 0 017.1 57.923V22.077A15 15 0 0122.077 7.1h35.845A15 15 0 0172.9 22.077v35.846z" fill="#fff"/><path d="M40 19.387a20.614 20.614 0 1020.618 20.614A20.637 20.637 0 0040 19.387zm0 34.129a13.516 13.516 0 1113.518-13.515A13.531 13.531 0 0140 53.517zm21.478-40.148a5.2 5.2 0 103.681 1.524 5.226 5.226 0 00-3.681-1.524z" fill="#fff"/></svg>