<svg xmlns="http://www.w3.org/2000/svg" width="218.76" height="89.379"><defs><filter id="a" x="75.7" y="0" width="78.02" height="89.379" filterUnits="userSpaceOnUse"><feOffset dy="3"/><feGaussianBlur stdDeviation="3" result="blur"/><feFlood flood-opacity=".161"/><feComposite operator="in" in2="blur"/><feComposite in="SourceGraphic"/></filter></defs><g data-name="Capa 2"><g filter="url(#a)" data-name="Capa 1"><path data-name="Trazado 3" d="M144.72 27.6c-10.031 5.468-38.333 25.016-55.676 49.779 6.93-20.788 36.063-44.419 36-44.359l-6.716.082-3.48-10.737-3.227 10.806-11.333.138 9.312 6.779-9.072 13.893 2.8-12.093L84.7 28.33l23.085-.28L114.664 6l7.811 21.869z" fill="#f8e503"/></g></g><path data-name="Trazado 4" d="M0 33.287v-1.029h6.178l9.67 21.086-1.107 2.614h-4.365zm18.971 12.714h-.134l-2.25 5.582-2.887-6.34 5.271-12.985h6.38v23.7h-6.38zM0 36.698l6.178 13.506v5.754H0zm29.716-4.44h6.716v23.7h-6.716zm8.126 0h8.529v5.271h-8.529zm0 9.1h6.951v5.271h-6.951zm0 9.337h8.529v5.263h-8.529zm20.214-18.648q1.343-.069 2.216-.069a34.307 34.307 0 015.54.413 20.254 20.254 0 012.451.413v4.927q-1.41-.138-2.115-.241-.571-.034-1.847-.172-1.276-.069-1.679-.069-2.048 0-3.005.086a3.842 3.842 0 00-1.561.431zm2.216 24.186a22.194 22.194 0 01-5.356-.517 5.851 5.851 0 01-3.106-1.826 7.857 7.857 0 01-1.561-3.618 33.363 33.363 0 01-.449-6.166 39.024 39.024 0 01.3-5.375 10.177 10.177 0 011.041-3.445 5.3 5.3 0 012.082-2.1 9.71 9.71 0 013.425-1v11.921q0 2.446.134 3.738a5.507 5.507 0 00.5 1.981 2.126 2.126 0 001.158 1 6.606 6.606 0 002.166.276v5.134zm1.746-9.375h-2.384v-5h8.73v13.506a27.547 27.547 0 01-3.929.586 19.8 19.8 0 01-2.418.207zm15.782-14.6h.571l2.653 9.44-3.862 14.26h-6.716zm7.555 19.5h-5.608l1.41-5.306h2.686l-3.961-14.194h6.145l7.353 23.7h-6.85z" fill="#fff"/><path data-name="Trazado 5" d="M153.585 37.697q-1.108-.138-3.9-.379-1.545-.069-2.485-.069-1.209 0-2.283.069v-5.34h.839a44.884 44.884 0 015.708.379q.94.138 2.115.379zm-5.54 11.266a3.92 3.92 0 00-.1-1.051.7.7 0 00-.336-.448 2.614 2.614 0 00-.806-.189l-4.13-.517q-3.66-.413-4.936-2.446a5.3 5.3 0 01-.772-2.1 19.311 19.311 0 01-.2-3.032q0-3.824 1.914-5.513a8.045 8.045 0 014.835-1.619v6.925a7.207 7.207 0 00.034.758 1.23 1.23 0 00.134.482.576.576 0 00.336.293 2.769 2.769 0 00.705.121l4.634.586a13.268 13.268 0 012.35.517 3.87 3.87 0 011.545.965q1.511 1.619 1.511 5.754 0 4.376-1.88 6.133a5.042 5.042 0 01-2.031 1.154 12.468 12.468 0 01-2.8.465zm-1.78 7.27a58.674 58.674 0 01-6.245-.31q-1.712-.172-2.585-.345v-5.03q1.981.172 4.533.345 1.612.069 2.283.069a16.931 16.931 0 002.384-.1v5.375zm10.074-23.975h18.9v5.513h-18.9zm6.078 6.891h6.716v16.809h-6.717zm19.038-6.891h.568l2.653 9.44-3.859 14.26h-6.715zm7.555 19.5h-5.607l1.41-5.306h2.686l-3.962-14.194h6.145l7.354 23.7h-6.85zm10.275-19.5h6.716v23.7h-6.716zm9.469 15.642h-1.343v-5.271h1.142a10.75 10.75 0 001.578-.086 1.781 1.781 0 00.839-.327 1.3 1.3 0 00.369-.724 7.413 7.413 0 00.1-1.413 7.7 7.7 0 00-.1-1.43 1.312 1.312 0 00-.369-.741 1.441 1.441 0 00-.789-.31 13.738 13.738 0 00-1.629-.069h-1.141v-5.271h3.459a12.738 12.738 0 013.861.482 4.724 4.724 0 012.283 1.482 5.124 5.124 0 01.991 2.308 20.39 20.39 0 01.252 3.549 14.3 14.3 0 01-.5 4.307 4.547 4.547 0 01-2.485 2.722l3.488 8.85h-7.051z" fill="#fff"/></svg>