<svg xmlns="http://www.w3.org/2000/svg" xmlns:xlink="http://www.w3.org/1999/xlink" width="218.76" height="89.379" viewBox="0 0 218.76 89.379">
  <defs>
    <filter id="Trazado_3" x="75.7" y="0" width="78.02" height="89.379" filterUnits="userSpaceOnUse">
      <feOffset dy="3" input="SourceAlpha"/>
      <feGaussianBlur stdDeviation="3" result="blur"/>
      <feFlood flood-opacity="0.161"/>
      <feComposite operator="in" in2="blur"/>
      <feComposite in="SourceGraphic"/>
    </filter>
  </defs>
  <g id="logo-megastar" transform="translate(-75.2 -225)">
    <g id="Capa_2" data-name="Capa 2" transform="translate(159.9 231)">
      <g id="Capa_1" data-name="Capa 1">
        <g transform="matrix(1, 0, 0, 1, -84.7, -6)" filter="url(#Trazado_3)">
          <path id="Trazado_3-2" data-name="Trazado 3" d="M60.02,21.6C49.989,27.068,21.687,46.616,4.344,71.379c6.93-20.788,36.063-44.419,36-44.359l-6.716.082-3.48-10.737L26.921,27.171l-11.333.138L24.9,34.088,15.828,47.981l2.8-12.093L0,22.33l23.085-.28L29.964,0l7.811,21.869Z" transform="translate(84.7 6)" fill="#f8e503"/>
        </g>
      </g>
    </g>
    <path id="Trazado_4" data-name="Trazado 4" d="M5.2-54.371V-55.4h6.178l9.67,21.086L19.941-31.7H15.576ZM24.171-41.657h-.134l-2.25,5.582L18.9-42.415,24.171-55.4h6.38v23.7h-6.38ZM5.2-50.96l6.178,13.506V-31.7H5.2ZM34.916-55.4h6.716v23.7H34.916Zm8.126,0h8.529v5.271H43.042Zm0,9.1h6.951v5.271H43.042Zm0,9.337h8.529V-31.7H43.042ZM63.256-55.611q1.343-.069,2.216-.069a34.307,34.307,0,0,1,5.54.413,20.254,20.254,0,0,1,2.451.413v4.927q-1.41-.138-2.115-.241-.571-.034-1.847-.172-1.276-.069-1.679-.069-2.048,0-3.005.086a3.842,3.842,0,0,0-1.561.431Zm2.216,24.186a22.194,22.194,0,0,1-5.356-.517,5.851,5.851,0,0,1-3.106-1.826,7.857,7.857,0,0,1-1.561-3.618A33.363,33.363,0,0,1,55-43.552a39.024,39.024,0,0,1,.3-5.375,10.177,10.177,0,0,1,1.041-3.445,5.3,5.3,0,0,1,2.082-2.1,9.71,9.71,0,0,1,3.425-1v11.921q0,2.446.134,3.738a5.507,5.507,0,0,0,.5,1.981,2.126,2.126,0,0,0,1.158,1,6.606,6.606,0,0,0,2.166.276v5.134ZM67.218-40.8H64.834v-5h8.73v13.506a27.547,27.547,0,0,1-3.929.586,19.8,19.8,0,0,1-2.418.207ZM83-55.4h.571l2.653,9.44L82.362-31.7H75.646Zm7.555,19.5H84.947l1.41-5.306h2.686L85.082-55.4h6.145L98.58-31.7H91.73Z" transform="translate(70 312.658)" fill="#fff"/>
    <path id="Trazado_5" data-name="Trazado 5" d="M19.862-49.961q-1.108-.138-3.9-.379-1.545-.069-2.485-.069-1.209,0-2.283.069v-5.34h.839a44.884,44.884,0,0,1,5.708.379q.94.138,2.115.379Zm-5.54,11.266a3.92,3.92,0,0,0-.1-1.051.7.7,0,0,0-.336-.448,2.614,2.614,0,0,0-.806-.189L8.95-40.9q-3.66-.413-4.936-2.446a5.3,5.3,0,0,1-.772-2.1,19.311,19.311,0,0,1-.2-3.032q0-3.824,1.914-5.513a8.045,8.045,0,0,1,4.835-1.619v6.925a7.207,7.207,0,0,0,.034.758,1.23,1.23,0,0,0,.134.482.576.576,0,0,0,.336.293,2.769,2.769,0,0,0,.705.121l4.634.586a13.268,13.268,0,0,1,2.35.517,3.87,3.87,0,0,1,1.545.965q1.511,1.619,1.511,5.754,0,4.376-1.88,6.133a5.042,5.042,0,0,1-2.031,1.154,12.468,12.468,0,0,1-2.8.465Zm-1.78,7.27a58.674,58.674,0,0,1-6.245-.31q-1.712-.172-2.585-.345v-5.03q1.981.172,4.533.345,1.612.069,2.283.069a16.931,16.931,0,0,0,2.384-.1v5.375ZM22.616-55.4h18.9v5.513h-18.9Zm6.078,6.891h6.716V-31.7H28.693ZM47.732-55.4H48.3l2.653,9.44L47.094-31.7H40.379Zm7.555,19.5H49.68l1.41-5.306h2.686L49.814-55.4h6.145l7.354,23.7h-6.85ZM65.562-55.4h6.716v23.7H65.562Zm9.469,15.642H73.688v-5.271h1.142a10.75,10.75,0,0,0,1.578-.086,1.781,1.781,0,0,0,.839-.327,1.3,1.3,0,0,0,.369-.724,7.413,7.413,0,0,0,.1-1.413,7.7,7.7,0,0,0-.1-1.43,1.312,1.312,0,0,0-.369-.741,1.441,1.441,0,0,0-.789-.31,13.738,13.738,0,0,0-1.629-.069H73.688V-55.4h3.459a12.738,12.738,0,0,1,3.861.482,4.724,4.724,0,0,1,2.283,1.482,5.124,5.124,0,0,1,.991,2.308,20.39,20.39,0,0,1,.252,3.549,14.3,14.3,0,0,1-.5,4.307,4.547,4.547,0,0,1-2.485,2.722L85.037-31.7H77.986Z" transform="translate(208.923 312.658)" fill="#fff"/>
  </g>
</svg>
